Coordinates
version=1
nRows=24
nColumns=22
inDegrees=yes

Units are S.I. units (second, meters, Newtons, ...)
If the header above contains a line with 'inDegrees', this indicates whether rotational values are in degrees (yes) or radians (no).

endheader
time	pelvis_tilt	pelvis_list	pelvis_rotation	pelvis_tx	pelvis_ty	pelvis_tz	hip_flexion_r	hip_adduction_r	hip_rotation_r	knee_angle_r	ankle_angle_r	subtalar_angle_r	hip_flexion_l	hip_adduction_l	hip_rotation_l	knee_angle_l	ankle_angle_l	subtalar_angle_l	lumbar_extension	lumbar_bending	lumbar_rotation
      1.42000000	     -0.36686764	     -5.49640509	      3.57778810	      0.93065693	      0.91446203	      0.01206490	     16.44473849	      7.75934414	    -16.56664203	    -23.92901136	      8.64942905	     -5.30835321	      6.88525143	    -10.95000620	     -1.96693520	    -66.33644594	      5.29796731	      1.61524794	     -6.89887671	      6.84986774	    -10.34777054
      1.43000000	     -0.60416862	     -5.52162885	      3.91326212	      0.92837657	      0.91401162	      0.01102122	     16.86100683	      7.63399628	    -16.79694677	    -23.91155398	      8.51522241	     -5.25751097	      5.89015932	    -10.85574125	     -2.02981967	    -64.89980887	      4.97032285	      1.83760934	     -6.40096827	      6.99930068	    -10.83757974
      1.44000000	     -0.83541097	     -5.54504423	      4.26062522	      0.92592386	      0.91355893	      0.00992188	     17.27728171	      7.49509491	    -17.04161310	    -23.88996718	      8.38943265	     -5.19990625	      4.93881242	    -10.75212790	     -2.07752881	    -63.46886075	      4.64517346	      2.11009019	     -5.91646647	      7.14595134	    -11.32226872
      1.45000000	     -1.06397283	     -5.56337607	      4.61929505	      0.92329851	      0.91309668	      0.00877946	     17.69554145	      7.33720880	    -17.31309314	    -23.86197501	      8.25182025	     -5.14445094	      4.03700167	    -10.63504901	     -2.10855610	    -62.04323392	      4.33085965	      2.39654199	     -5.43916652	      7.27951099	    -11.79087902
      1.46000000	     -1.29141027	     -5.58038432	      4.98086162	      0.92047965	      0.91262478	      0.00760687	     18.11839834	      7.16959296	    -17.57862896	    -23.82515270	      8.09018061	     -5.08198296	      3.18926503	    -10.50987667	     -2.13061369	    -60.62862882	      4.05332332	      2.69841251	     -4.97650561	      7.40629044	    -12.25044018
      1.47000000	     -1.53083751	     -5.59700435	      5.34261428	      0.91746712	      0.91212156	      0.00639673	     18.56671983	      6.98243715	    -17.87797168	    -23.79298988	      7.87105456	     -5.06303896	      2.41679673	    -10.37751574	     -2.15410614	    -59.23299705	      3.82148736	      2.81500742	     -4.51029497	      7.52543350	    -12.65208393
      1.48000000	     -1.73619586	     -5.60159499	      5.72602563	      0.91427367	      0.91164008	      0.00513140	     18.98973235	      6.76135653	    -18.22563366	    -23.77483288	      7.76612836	     -4.96304317	      1.66843432	    -10.22423127	     -2.14379662	    -57.84545743	      3.61107543	      3.08056155	     -4.09851391	      7.62639649	    -13.05811197
      1.49000000	     -1.94400510	     -5.61060462	      6.09517391	      0.91087754	      0.91114054	      0.00387638	     19.43044228	      6.54096360	    -18.54931841	    -23.75849448	      7.56163030	     -4.89226766	      0.98747269	    -10.06955632	     -2.14305401	    -56.48102571	      3.45729039	      3.26084232	     -3.70225674	      7.72332606	    -13.41731888
      1.50000000	     -2.14556196	     -5.62880504	      6.44348232	      0.90729440	      0.91062912	      0.00265653	     19.87823800	      6.33091552	    -18.85231471	    -23.74133619	      7.28957834	     -4.86698987	      0.36310572	     -9.91853773	     -2.15432597	    -55.13807891	      3.36866515	      3.35397017	     -3.33088751	      7.81931269	    -13.70798786
      1.51000000	     -2.30207712	     -5.62115867	      6.81510010	      0.90357041	      0.91016399	      0.00138677	     20.28394229	      6.07801472	    -19.19698737	    -23.73881240	      7.14526668	     -4.75605477	     -0.24748393	     -9.73246612	     -2.12974757	    -53.79712008	      3.24926711	      3.58545298	     -3.02106767	      7.87927535	    -14.01037155
      1.52000000	     -2.44670373	     -5.62162367	      7.15965018	      0.89966910	      0.90970153	      0.00018443	     20.69067185	      5.84454938	    -19.50085566	    -23.73257914	      6.90078966	     -4.71122396	     -0.81387901	     -9.55991940	     -2.13871835	    -52.46164952	      3.17327882	      3.72981341	     -2.74194182	      7.93469029	    -14.25014821
      1.53000000	     -2.56063969	     -5.61310612	      7.49729003	      0.89560447	      0.90927564	     -0.00097765	     21.07530186	      5.60622615	    -19.79652789	    -23.73027673	      6.65537991	     -4.67882943	     -1.36303505	     -9.38225476	     -2.15515235	    -51.10605368	      3.09907126	      3.85878401	     -2.51170008	      7.96405283	    -14.45337754
      1.54000000	     -2.66740251	     -5.61144884	      7.82366681	      0.89134440	      0.90884419	     -0.00208943	     21.47118463	      5.37900548	    -20.07153060	    -23.73335808	      6.33396518	     -4.69012955	     -1.86289552	     -9.22274537	     -2.19632436	    -49.73553593	      3.05548479	      3.90805575	     -2.30211009	      7.98368583	    -14.61827322
      1.55000000	     -2.69591687	     -5.55883471	      8.16582979	      0.88693424	      0.90854207	     -0.00321354	     21.78243113	      5.10358223	    -20.34685351	    -23.74009115	      6.11588332	     -4.66383857	     -2.42021139	     -9.02009975	     -2.22404345	    -48.29124784	      2.96813852	      3.99668700	     -2.19759085	      7.93628207	    -14.80850945
      1.56000000	     -2.71788369	     -5.51258957	      8.50286611	      0.88230656	      0.90823639	     -0.00429226	     22.10698778	      4.83793549	    -20.60273868	    -23.75224331	      5.80552490	     -4.67111747	     -2.93264990	     -8.83278109	     -2.25162718	    -46.81824242	      2.93872913	      4.01447037	     -2.11288917	      7.87919904	    -14.98328832
      1.57000000	     -2.70375770	     -5.44959345	      8.84598792	      0.87748611	      0.90798146	     -0.00536785	     22.40124433	      4.55604327	    -20.85896609	    -23.76436977	      5.48933681	     -4.68389095	     -3.44604526	     -8.62835003	     -2.24233516	    -45.30106789	      2.96001461	      3.98952971	     -2.08029847	      7.79174454	    -15.14714541
      1.58000000	     -2.66524530	     -5.37029459	      9.19826291	      0.87244726	      0.90775591	     -0.00645069	     22.67923009	      4.25539175	    -21.11267388	    -23.77562200	      5.14760612	     -4.70695873	     -3.94018950	     -8.40316656	     -2.17932536	    -43.77071720	      3.06358037	      3.92381501	     -2.08867305	      7.67658565	    -15.32427360
      1.59000000	     -2.60468074	     -5.27642086	      9.55970450	      0.86719125	      0.90755471	     -0.00753635	     22.93853524	      3.93729205	    -21.37378107	    -23.77984828	      4.78945001	     -4.73799791	     -4.41012962	     -8.15491619	     -2.03907702	    -42.25568781	      3.26568502	      3.82351334	     -2.13378385	      7.53502449	    -15.51137130
      1.60000000	     -2.51697382	     -5.17613473	      9.93088021	      0.86170267	      0.90738434	     -0.00863173	     23.16979796	      3.61254063	    -21.64573603	    -23.76425920	      4.42757284	     -4.77449352	     -4.85418434	     -7.88786856	     -1.79511467	    -40.80097303	      3.56436448	      3.67729483	     -2.22554126	      7.37932120	    -15.68976453
      1.61000000	     -2.41484106	     -5.05767946	     10.31694508	      0.85596586	      0.90721806	     -0.00976805	     23.38488026	      3.25897783	    -21.93951063	    -23.73276074	      4.04699409	     -4.81975006	     -5.24391765	     -7.59961638	     -1.46856031	    -39.46560412	      3.96362957	      3.49754273	     -2.34738222	      7.20237025	    -15.88837731
      1.62000000	     -2.29925019	     -4.93212933	     10.71065441	      0.84996705	      0.90704828	     -0.01090337	     23.58290655	      2.89580866	    -22.25024774	    -23.67378448	      3.65336558	     -4.86967228	     -5.56603575	     -7.30979071	     -1.07807903	    -38.29840043	      4.44083110	      3.27446043	     -2.50342635	      7.01233265	    -16.08828235
      1.63000000	     -2.16794557	     -4.80428131	     11.10705061	      0.84372240	      0.90688009	     -0.01204896	     23.75665943	      2.52847142	    -22.57527543	    -23.58025586	      3.25039954	     -4.91677642	     -5.82217902	     -7.02810979	     -0.64646012	    -37.31961732	      4.97135163	      2.97865771	     -2.69294351	      6.81944154	    -16.27500761
      1.64000000	     -2.02178067	     -4.67879752	     11.49594013	      0.83722956	      0.90670406	     -0.01318765	     23.91870467	      2.16437413	    -22.89294886	    -23.46977893	      2.82702607	     -4.94923148	     -6.01343038	     -6.76591180	     -0.21989364	    -36.52790399	      5.53919053	      2.60074703	     -2.91522742	      6.63386502	    -16.45817395
      1.65000000	     -1.86410923	     -4.54451955	     11.85709230	      0.83050641	      0.90653174	     -0.01427902	     24.05467888	      1.81006192	    -23.16255949	    -23.30335422	      2.35177513	     -4.94557915	     -6.14655405	     -6.51865324	      0.13245843	    -35.90669519	      6.16720138	      2.07162924	     -3.16906750	      6.43777063	    -16.60548725
